<?xml version="1.0" encoding="UTF-8" standalone="no"?>
<!-- Created with Inkscape (http://www.inkscape.org/) -->

<svg
   width="23.848347mm"
   height="35.007401mm"
   viewBox="0 0 23.848346 35.0074"
   version="1.1"
   id="svg5"
   inkscape:version="1.2.1 (9c6d41e, 2022-07-14)"
   sodipodi:docname="initials.svg"
   inkscape:export-filename="initials.png"
   inkscape:export-xdpi="96"
   inkscape:export-ydpi="96"
   xmlns:inkscape="http://www.inkscape.org/namespaces/inkscape"
   xmlns:sodipodi="http://sodipodi.sourceforge.net/DTD/sodipodi-0.dtd"
   xmlns="http://www.w3.org/2000/svg"
   xmlns:svg="http://www.w3.org/2000/svg">
  <sodipodi:namedview
     id="namedview7"
     pagecolor="#ffffff"
     bordercolor="#000000"
     borderopacity="0.25"
     inkscape:showpageshadow="2"
     inkscape:pageopacity="0.0"
     inkscape:pagecheckerboard="0"
     inkscape:deskcolor="#d1d1d1"
     inkscape:document-units="mm"
     showgrid="false"
     inkscape:zoom="3.9441263"
     inkscape:cx="21.551034"
     inkscape:cy="88.359238"
     inkscape:window-width="1390"
     inkscape:window-height="1205"
     inkscape:window-x="0"
     inkscape:window-y="25"
     inkscape:window-maximized="0"
     inkscape:current-layer="layer1" />
  <defs
     id="defs2">
    <rect
       x="22.079407"
       y="267.80185"
       width="148.63908"
       height="124.64181"
       id="rect1191" />
    <rect
       x="66.673515"
       y="114.76589"
       width="154.1142"
       height="172.69534"
       id="rect236" />
    <rect
       x="66.673515"
       y="114.76589"
       width="154.1142"
       height="172.69534"
       id="rect236-9" />
  </defs>
  <g
     inkscape:label="Layer 1"
     inkscape:groupmode="layer"
     id="layer1"
     transform="translate(-19.501782,-15.37661)">
    <g
       aria-label="S"
       transform="matrix(0.26458333,0,0,0.26458333,-7.5189873,-19.375852)"
       id="text234"
       style="font-size:96px;font-family:Arial;-inkscape-font-specification:Arial;text-align:center;text-orientation:upright;text-anchor:middle;white-space:pre;shape-inside:url(#rect236);display:inline;stroke-width:3.77953;stroke-linejoin:round;stroke-miterlimit:0;paint-order:markers fill stroke">
      <path
         d="m 116.02734,179.15992 8.57813,-0.001 c 0.40625,3.4375 1.34375,5.5171 2.8125,7.73585 1.5,2.1875 3.8125,3.96875 6.9375,5.34375 3.125,1.34375 6.64062,2.01562 10.54687,2.01562 3.46875,0 6.53125,-0.51562 9.1875,-1.54687 2.65625,-1.03125 4.625,-2.4375 5.90625,-4.21875 1.3125,-1.8125 1.96875,-3.78125 1.96875,-5.90625 0,-2.15625 -0.625,-4.03125 -1.875,-5.625 -1.25,-1.625 -3.3125,-2.98438 -6.1875,-4.07813 -1.84375,-0.71875 -5.92187,-1.82812 -12.23437,-3.32812 -6.3125,-1.53125 -10.73438,-2.96875 -13.26563,-4.3125 -3.28125,-1.71875 -5.73437,-3.84375 -7.35937,-6.375 -1.59375,-2.5625 -2.39063,-5.42188 -2.39063,-8.57813 0,-3.46875 0.98438,-6.70312 2.95313,-9.70312 1.96875,-3.03125 4.84375,-5.32813 8.625,-6.89063 3.78125,-1.5625 7.98437,-2.34375 12.60937,-2.34375 5.09375,0 9.57813,0.82813 13.45313,2.48438 3.90625,1.625 6.90625,4.03125 9,7.21875 2.09375,3.1875 3.21875,6.79687 3.375,10.82812 l -8.71875,-0.001 c -0.46875,-4.34375 -2.0625,-6.96743 -4.78125,-9.18618 -2.6875,-2.21875 -6.67188,-3.32812 -11.95313,-3.32812 -5.5,0 -9.51562,1.01562 -12.04687,3.04687 -2.5,2 -3.75,4.42188 -3.75,7.26563 0,2.46875 0.89062,4.5 2.67187,6.09375 1.75,1.59375 6.3125,3.23437 13.6875,4.92187 7.40625,1.65625 12.48438,3.10938 15.23438,4.35938 4,1.84375 6.95312,4.1875 8.85937,7.03125 1.90625,2.8125 2.85938,6.0625 2.85938,9.75 0,3.65625 -1.04688,7.10937 -3.14063,10.35937 -2.09375,3.21875 -5.10937,5.73438 -9.04687,7.54688 -3.90625,1.78125 -8.3125,2.67187 -13.21875,2.67187 -6.21875,0 -11.4375,-0.90625 -15.65625,-2.71875 -4.1875,-1.8125 -7.48438,-4.53125 -9.89063,-8.15625 -2.375,-3.65625 -3.625,-7.78125 -3.75,-12.375 z"
         id="path2862"
         sodipodi:nodetypes="ccccsscscccccscsscscccscsccccsccscccc" />
    </g>
    <g
       id="g1923"
       transform="translate(0,1.0583333)">
      <g
         aria-label="K"
         transform="matrix(0.26050605,0,0,0.24133916,-2.3839471,0.75905637)"
         id="text234-3"
         style="font-size:96px;font-family:Arial;-inkscape-font-specification:Arial;text-align:center;text-orientation:upright;white-space:pre;stroke-width:3.77953;stroke-linejoin:round;stroke-miterlimit:0;paint-order:markers fill stroke">
        <path
           d="m 120.29115,179.83505 -1.54506,-47.31575 h 9.09375 v 34.07812 l 34.125,-34.07812 h 12.32813 l -28.82813,27.84375 30.09375,40.875 h -12 l -24.46875,-34.78125 -11.25,10.96875 v 0 z"
           id="path2821"
           sodipodi:nodetypes="ccccccccccccc" />
      </g>
    </g>
    <g
       aria-label="J"
       transform="matrix(0.30946542,0,0,0.24756026,-3.7570088,-37.610547)"
       id="text1189"
       style="font-size:96px;font-family:Arial;-inkscape-font-specification:Arial;text-align:center;text-orientation:upright;text-anchor:middle;white-space:pre;shape-inside:url(#rect1191);display:inline;stroke-width:7.55906;stroke-linejoin:round;stroke-miterlimit:0;paint-order:markers fill stroke">
      <path
         d="m 75.165039,335.00679 7.119274,-0.002 c 0.21875,5.25 2.286976,7.48887 4.036976,9.42637 1.75,1.9375 4.171875,2.90625 7.265625,2.90625 2.28125,0 4.25,-0.51563 5.90625,-1.54688 1.656246,-1.0625 2.796876,-2.48437 3.421876,-4.26562 0.625,-1.8125 0.9375,-4.6875 0.9375,-8.625 v -47.34375 h 9.09375 v 46.82812 c 0,5.75 -0.70313,10.20313 -2.10938,13.35938 -1.375,3.15625 -3.57812,5.5625 -6.60937,7.21875 -3,1.65625 -6.531251,2.48437 -10.593751,2.48437 -6.03125,0 -10.65625,-1.73437 -13.875,-5.20312 -3.1875,-3.46875 -4.71875,-8.39337 -4.59375,-15.23712 z"
         id="path2859"
         sodipodi:nodetypes="ccssccsccsccscc" />
    </g>
  </g>
</svg>
